<?xml version="1.0" encoding="UTF-8"?>
<!DOCTYPE svg PUBLIC "-//W3C//DTD SVG 1.1//EN" "http://www.w3.org/Graphics/SVG/1.1/DTD/svg11.dtd">
<!-- Creator: CorelDRAW 2020 (64-Bit) -->
<svg xmlns="http://www.w3.org/2000/svg" xml:space="preserve" width="297mm" height="210mm" version="1.1" style="shape-rendering:geometricPrecision; text-rendering:geometricPrecision; image-rendering:optimizeQuality; fill-rule:evenodd; clip-rule:evenodd"
viewBox="0 0 29700 21000"
 xmlns:xlink="http://www.w3.org/1999/xlink"
 xmlns:xodm="http://www.corel.com/coreldraw/odm/2003">
 <defs>
  <style type="text/css">
   <![CDATA[
    .fil1 {fill:none}
    .fil0 {fill:#0F0C0F}
    .fil4 {fill:#E5E5E5}
    .fil3 {fill:#FEFEFE}
    .fil2 {fill:white}
   ]]>
  </style>
   <clipPath id="id0">
    <path d="M560.43 432.34l16849.03 0 0 20149.58 -16849.03 0 0 -20149.58z"/>
   </clipPath>
     <clipPath id="id1">
     </clipPath>
     <clipPath id="id2">
      <path d="M560.43 432.34l16849.03 0 0 20149.58 -16849.03 0 0 -20149.58z"/>
     </clipPath>
   <clipPath id="id3">
    <path d="M17409.46 16452.84l0 2692.46c-181.32,-102.09 -390.58,-160.4 -613.49,-160.4 -691.7,0 -1252.4,560.7 -1252.4,1252.39 0,119.53 16.77,235.14 48.04,344.63l-2602.03 0c-19.81,-174.78 -30.54,-349.76 -32.97,-524.93l870.58 -224.97 0.2 0.07c23.84,-176.22 63,-347.61 116.09,-512.75l-0.2 0 -681.23 -609.72c332.87,-630.15 731.99,-1166.48 1242.05,-1583.85l736.4 538.99c1.58,2.93 3.06,5.79 4.65,8.73 167.29,-101.43 345.4,-186.85 532.03,-254.35 -6.68,1.58 -13.34,3.43 -19.98,5.86 12.61,-297.47 25.18,-594.92 37.8,-892.39 554.9,-119.13 1091.77,-138.76 1614.46,-79.77z"/>
   </clipPath>
     <clipPath id="id4">
     </clipPath>
     <clipPath id="id5">
      <path d="M17409.46 16452.84l0 2692.46c-181.32,-102.09 -390.58,-160.4 -613.49,-160.4 -691.7,0 -1252.4,560.7 -1252.4,1252.39 0,119.53 16.77,235.14 48.04,344.63l-2602.03 0c-19.81,-174.78 -30.54,-349.76 -32.97,-524.93l870.58 -224.97 0.2 0.07c23.84,-176.22 63,-347.61 116.09,-512.75l-0.2 0 -681.23 -609.72c332.87,-630.15 731.99,-1166.48 1242.05,-1583.85l736.4 538.99c1.58,2.93 3.06,5.79 4.65,8.73 167.29,-101.43 345.4,-186.85 532.03,-254.35 -6.68,1.58 -13.34,3.43 -19.98,5.86 12.61,-297.47 25.18,-594.92 37.8,-892.39 554.9,-119.13 1091.77,-138.76 1614.46,-79.77z"/>
     </clipPath>
   <clipPath id="id6">
    <rect x="4177.25" y="10327.56" width="8320.65" height="6987.74"/>
   </clipPath>
   <clipPath id="id7">
    <path d="M4177.25 17315.3l8320.65 0 0 -6987.74 -8320.65 0 0 6987.74z"/>
   </clipPath>
   <clipPath id="id8">
    <rect x="4177.25" y="10327.56" width="8320.65" height="6987.74"/>
   </clipPath>
    <clipPath id="id9">
     <path d="M4627.57 4812.29l8500.77 0 0 6010.82 -8500.77 0 0 -6010.82z"/>
    </clipPath>
 </defs>
 <g id="Capa_x0020_1">
  <metadata id="CorelCorpID_0Corel-Layer"/>
  <g>
  </g>
  <g style="clip-path:url(#id0)">
   <g>
    <g id="_2513338676624">
    </g>
    <g style="clip-path:url(#id1)">
     <image x="-13100.1" y="277.63" width="9261.59" height="22286.85" xlink:href="Fondo Inicio_Images\Fondo Inicio_ImgID1.png"/>
    </g>
    <g style="clip-path:url(#id2)">
    </g>
    <rect class="fil0" x="-12031.46" y="1346.27" width="7124.31" height="20149.57" rx="143.93" ry="575.7"/>
   </g>
  </g>
  <polygon class="fil1" points="560.43,432.34 17409.46,432.34 17409.46,20581.92 560.43,20581.92 "/>
  <path class="fil2" d="M17409.46 16452.84l0 2692.46c-181.32,-102.09 -390.58,-160.4 -613.49,-160.4 -691.7,0 -1252.4,560.7 -1252.4,1252.39 0,119.53 16.77,235.14 48.04,344.63l-2602.03 0c-19.81,-174.78 -30.54,-349.76 -32.97,-524.93l870.58 -224.97 0.2 0.07c23.84,-176.22 63,-347.61 116.09,-512.75l-0.2 0 -681.23 -609.72c332.87,-630.15 731.99,-1166.48 1242.05,-1583.85l736.4 538.99c1.58,2.93 3.06,5.79 4.65,8.73 167.29,-101.43 345.4,-186.85 532.03,-254.35 -6.68,1.58 -13.34,3.43 -19.98,5.86 12.61,-297.47 25.18,-594.92 37.8,-892.39 554.9,-119.13 1091.77,-138.76 1614.46,-79.77z"/>
  <g style="clip-path:url(#id3)">
   <g>
    <g id="_2513338675712">
    </g>
    <g style="clip-path:url(#id4)">
     <image x="-13100.1" y="277.63" width="9261.59" height="22286.85" xlink:href="Fondo Inicio_Images\Fondo Inicio_ImgID2.png"/>
    </g>
    <g style="clip-path:url(#id5)">
    </g>
    <rect class="fil0" x="-12031.46" y="1346.27" width="7124.31" height="20149.57" rx="143.93" ry="575.7"/>
   </g>
  </g>
  <path class="fil1" d="M17409.46 16452.84l0 2692.46c-181.32,-102.09 -390.58,-160.4 -613.49,-160.4 -691.7,0 -1252.4,560.7 -1252.4,1252.39 0,119.53 16.77,235.14 48.04,344.63l-2602.03 0c-19.81,-174.78 -30.54,-349.76 -32.97,-524.93l870.58 -224.97 0.2 0.07c23.84,-176.22 63,-347.61 116.09,-512.75l-0.2 0 -681.23 -609.72c332.87,-630.15 731.99,-1166.48 1242.05,-1583.85l736.4 538.99c1.58,2.93 3.06,5.79 4.65,8.73 167.29,-101.43 345.4,-186.85 532.03,-254.35 -6.68,1.58 -13.34,3.43 -19.98,5.86 12.61,-297.47 25.18,-594.92 37.8,-892.39 554.9,-119.13 1091.77,-138.76 1614.46,-79.77z"/>
  <g style="clip-path:url(#id6)">
  </g>
  <g style="clip-path:url(#id7)">
   <image id="Png.png" x="4177.25" y="10327.56" width="8320.65" height="6987.74" xlink:href="Fondo Inicio_Images\Fondo Inicio_ImgID3.png"/>
  </g>
  <g style="clip-path:url(#id8)">
  </g>
  <path class="fil2" d="M4518.64 2897.68c-31.43,-65.1 -69.18,-127.51 -112.96,-186.28 1.89,2 3.71,4.1 5.4,6.41l175.99 -307.29c-182.95,-174.88 -396.76,-316.89 -652.51,-414.28 -66.22,93.2 -132.43,186.41 -198.65,279.61 2.65,0.6 5.18,1.4 7.67,2.29 -74.24,-17.25 -149.47,-26.95 -224.56,-29.23 0.1,-1.27 0.22,-2.5 0.32,-3.78l-124.63 -327.53c-251.54,27.9 -492.2,117.3 -731.12,250.77l92.08 338.78 0.06 0.05c-51.61,42.11 -100.04,89.14 -144.54,140.94l-0.05 -0.07 -327.49 -109.42c-134.75,214.22 -231.13,452.12 -275.42,722.18 106.7,47.18 217.5,95.87 324.21,143.03 0.35,69.97 7.03,139.66 19.94,208.15l-289.12 193.72c85.95,238.05 214.16,460.42 399.8,661.5l307.67 -164.77c27.54,21.66 56.24,42.32 86.22,61.76 32.84,21.3 66.38,40.7 100.46,58.25l-2.62 1.1 -22.01 347.95c237.49,81.26 488.13,118.97 756.62,97.57 18.69,-116.36 37.25,-233.59 55.92,-350.02 68.5,-16.03 135.57,-38.36 200.27,-66.7 -0.71,0.34 -1.41,0.7 -2.12,1.01l255.52 244.78c213.96,-135.16 403.52,-308.22 559.96,-532.78 -75.93,-88.59 -160.94,-183.74 -236.89,-272.33l-0.03 -0.04c30.48,-63.95 54.56,-129.67 72.43,-196.34 1.5,1.39 2.92,2.79 4.43,4.19l345.43 -50.82c25.12,-251.83 5.35,-507.75 -75.39,-769.24l-349.48 16 -0.81 0.88zm-774 97.8c222.84,144.52 286.34,442.33 141.81,665.18 -144.53,222.85 -442.34,286.34 -665.18,141.81 -222.86,-144.53 -286.34,-442.34 -141.82,-665.18 144.53,-222.86 442.34,-286.34 665.19,-141.81z"/>
  <g>
   <g style="clip-path:url(#id9)">
    <image x="4627.57" y="4812.29" width="8500.77" height="6010.82" xlink:href="Fondo Inicio_Images\Fondo Inicio_ImgID4.png"/>
   </g>
  </g>
  <g>
   <g id="_2513338702928">
    <path class="fil3" d="M10164.59 7343.21c84.61,64.38 1054.89,629.36 1250.66,745.91 59.75,35.57 119.74,86.89 166.7,46.74 44.39,-37.96 768.17,-1278.16 852.84,-1430.54l-142.77 -550.15c-10.7,-44.67 -6.45,-50.24 -61.75,-83.16l-813.79 -481.64c-65.85,-38.95 -155,-115.72 -208.04,-70.88 -35.07,29.65 -705.77,1180.48 -827.02,1385.07 -30.19,50.93 -223.85,349.46 -224.07,401.29l7.24 37.36z"/>
    <polygon class="fil4" points="10573.12,7183.57 11476.24,7718.39 11552.91,7597.05 10642.62,7056.59 "/>
    <polygon class="fil4" points="10837.1,6737.29 10897.67,6768.36 11706.18,7248.3 11739.13,7268.8 11817.72,7150.85 11782.31,7129.3 10969.29,6647.56 10909.63,6612.84 "/>
    <polygon class="fil4" points="10972.46,6510.18 11875.76,7046.52 11948.82,6926.94 11043.65,6388.2 "/>
    <polygon class="fil4" points="10706.61,6957.07 11608.38,7492.41 11683.89,7372.65 10779.38,6837.88 "/>
    <polygon class="fil4" points="11105.46,6286.09 12005.22,6820.55 12081.09,6703.78 11176,6164.12 "/>
    <path class="fil4" d="M12392.56 6679.4c-75.04,-61.23 -189.49,-118.99 -258.73,-179.92 -86.43,-76.04 54.16,-185.34 75.31,-279.54 -0.36,0.27 -178.87,198.68 -120.94,275.06 24.65,32.5 255.51,161.81 304.36,184.4z"/>
   </g>
   <g id="_2513338701920">
    <path class="fil3" d="M7121.5 10129.56c123.46,-75.45 1319.36,-1026.29 1563.88,-1216.87 74.64,-58.17 169.35,-108.86 141.66,-188.24 -26.18,-75.04 -1240.72,-1605.69 -1392.05,-1788.36l-768.05 -90.95c-61.91,-8.51 -66.88,-16.66 -135.95,37.18l-1012.89 793.63c-81.93,64.24 -223.33,139.32 -192.7,228.72 20.26,59.12 1147.72,1478.3 1347.16,1733.15 49.66,63.45 332.4,456.54 398,482.44l50.94 9.3z"/>
    <polygon class="fil4" points="7121.06,9532.71 8245.53,8652.11 8129.59,8494.93 6994.43,9381.82 "/>
    <polygon class="fil4" points="6685.76,8977.44 6755.1,8916 7763.21,8128.22 7805.49,8096.58 7694.8,7938.64 7649.98,7972.89 6637.35,8765.49 6563.83,8823.97 "/>
    <polygon class="fil4" points="6464.74,8693.57 7591.23,7813.49 7475.73,7661.75 6345.28,8543.02 "/>
    <polygon class="fil4" points="6899.89,9251.5 8024.35,8372.88 7909.84,8217.95 6784.75,9100.33 "/>
    <polygon class="fil4" points="6246.39,8414.17 7368.73,7537.66 7258.2,7383.75 6126.62,8264.44 "/>
    <path class="fil4" d="M7381.26 6976.82c-114.73,64.86 -244.53,181.41 -356,239.08 -139.13,71.98 -208.2,-160.28 -317.17,-233.66 0.16,0.58 163.47,324.98 288.94,289.29 53.38,-15.19 331.44,-243.94 384.23,-294.71z"/>
   </g>
  </g>
  <path class="fil2" d="M10224.76 3388.7c-12.59,-26.07 -27.7,-51.05 -45.23,-74.59 0.76,0.81 1.49,1.64 2.16,2.57l70.47 -123.04c-73.25,-70.02 -158.86,-126.87 -261.26,-165.87 -26.52,37.32 -53.02,74.64 -79.54,111.95 1.06,0.24 2.08,0.56 3.07,0.92 -29.72,-6.91 -59.85,-10.79 -89.91,-11.7 0.04,-0.51 0.09,-1.01 0.13,-1.52l-49.9 -131.14c-100.72,11.17 -197.07,46.97 -292.73,100.41l36.86 135.64 0.03 0.02c-20.67,16.86 -40.06,35.7 -57.87,56.43l-0.02 -0.02 -131.13 -43.82c-53.95,85.77 -92.54,181.03 -110.27,289.16 42.72,18.89 87.08,38.38 129.81,57.26 0.14,28.02 2.81,55.92 7.98,83.35l-115.76 77.56c34.41,95.31 85.75,184.35 160.08,264.86l123.18 -65.98c11.03,8.68 22.52,16.95 34.52,24.73 13.15,8.53 26.58,16.3 40.23,23.33l-1.05 0.44 -8.81 139.31c95.09,32.54 195.44,47.64 302.94,39.07 7.48,-46.59 14.91,-93.53 22.39,-140.14 27.42,-6.42 54.28,-15.36 80.18,-26.71 -0.28,0.13 -0.56,0.28 -0.84,0.4l102.3 98.01c85.67,-54.11 161.57,-123.41 224.2,-213.32 -30.39,-35.47 -64.43,-73.57 -94.84,-109.04l-0.01 -0.01c12.2,-25.61 21.84,-51.92 29,-78.62 0.59,0.56 1.16,1.12 1.77,1.68l138.31 -20.35c10.05,-100.83 2.14,-203.29 -30.19,-307.99l-139.93 6.4 -0.32 0.36zm-309.9 39.15c89.22,57.87 114.64,177.11 56.77,266.34 -57.86,89.22 -177.1,114.64 -266.33,56.78 -89.23,-57.87 -114.64,-177.11 -56.78,-266.34 57.87,-89.22 177.11,-114.64 266.34,-56.78z"/>
 </g>
</svg>
